  0
SECTION
  2
HEADER
  9
$INSBASE
 10
0.0
 20
0.0
 30
0.0
  9
$ANGDIR
 70
0
  9
$ACADVER
  1
AC1009
  9
$UNITMODE
 70
0
  9
$AUNITS
 70
0
  9
$ANGBASE
 50
0.0
  9
$EXTMIN
 10
0.0
 20
0.0
 30
0.0
  9
$EXTMAX
 10
100.0
 20
100.0
 30
0.0
  0
ENDSEC
  0
SECTION
  2
TABLES
  0
TABLE
  2
LTYPE
 70
19
  0
LTYPE
  2
CENTER
 70
0
  3
Center ____ _ ____ _ ____ _ ____ _ ____ _ ____
 72
65
 73
4
 40
2.0
 49
1.25
 49
-0.25
 49
0.25
 49
-0.25
  0
LTYPE
  2
DASHDOT
 70
0
  3
Dash dot __ . __ . __ . __ . __ . __ . __ . __
 72
65
 73
4
 40
1.4
 49
1.0
 49
-0.2
 49
0.0
 49
-0.2
  0
LTYPE
  2
DOT
 70
0
  3
Dot .  .  .  .  .  .  .  .  .  .  .  .  .  .  .  .
 72
65
 73
2
 40
0.2
 49
0.0
 49
-0.2
  0
LTYPE
  2
DASHED
 70
0
  3
Dashed __ __ __ __ __ __ __ __ __ __ __ __ __ _
 72
65
 73
2
 40
0.6
 49
0.5
 49
-0.1
  0
LTYPE
  2
DIVIDE
 70
0
  3
Divide __ . . __ . . __ . . __ . . __ . . __
 72
65
 73
6
 40
1.6
 49
1.0
 49
-0.2
 49
0.0
 49
-0.2
 49
0.0
 49
-0.2
  0
LTYPE
  2
CENTERX2
 70
0
  3
Center (2x) ________  __  ________  __  ________
 72
65
 73
4
 40
3.5
 49
2.5
 49
-0.25
 49
0.5
 49
-0.25
  0
LTYPE
  2
DOTX2
 70
0
  3
Dot (2x) .    .    .    .    .    .    .    . 
 72
65
 73
2
 40
0.4
 49
0.0
 49
-0.4
  0
LTYPE
  2
DIVIDE2
 70
0
  3
Divide(.5x) _ . _ . _ . _ . _ . _ . _ . _
 72
65
 73
6
 40
0.8
 49
0.5
 49
-0.1
 49
0.0
 49
-0.1
 49
0.0
 49
-0.1
  0
LTYPE
  2
CONTINUOUS
 70
0
  3
Solid
 72
65
 73
0
 40
0.0
  0
LTYPE
  2
DASHED2
 70
0
  3
Dashed (.5x) _ _ _ _ _ _ _ _ _ _ _ _ _ _
 72
65
 73
2
 40
0.3
 49
0.25
 49
-0.05
  0
LTYPE
  2
CENTER2
 70
0
  3
Center (.5x) ____ _ ____ _ ____ _ ____ _ ____
 72
65
 73
4
 40
1.0
 49
0.625
 49
-0.125
 49
0.125
 49
-0.125
  0
LTYPE
  2
PHANTOM
 70
0
  3
Phantom ______  __  __  ______  __  __  ______
 72
65
 73
6
 40
2.5
 49
1.25
 49
-0.25
 49
0.25
 49
-0.25
 49
0.25
 49
-0.25
  0
LTYPE
  2
PHANTOMX2
 70
0
  3
Phantom (2x)____________    ____    ____    ____________
 72
65
 73
6
 40
4.25
 49
2.5
 49
-0.25
 49
0.5
 49
-0.25
 49
0.5
 49
-0.25
  0
LTYPE
  2
DASHDOT2
 70
0
  3
Dash dot (.5x) _ . _ . _ . _ . _ . _ . _ . _
 72
65
 73
4
 40
0.7
 49
0.5
 49
-0.1
 49
0.0
 49
-0.1
  0
LTYPE
  2
DIVIDEX2
 70
0
  3
Divide (2x) ____  . .  ____  . .  ____  . .  ____
 72
65
 73
6
 40
2.6
 49
2.0
 49
-0.2
 49
0.0
 49
-0.2
 49
0.0
 49
-0.2
  0
LTYPE
  2
DASHDOTX2
 70
0
  3
Dash dot (2x) ____  .  ____  .  ____  .  ____
 72
65
 73
4
 40
2.4
 49
2.0
 49
-0.2
 49
0.0
 49
-0.2
  0
LTYPE
  2
DOT2
 70
0
  3
Dot (.5) . . . . . . . . . . . . . . . . . . . 
 72
65
 73
2
 40
0.1
 49
0.0
 49
-0.1
  0
LTYPE
  2
PHANTOM2
 70
0
  3
Phantom (.5x) ___ _ _ ___ _ _ ___ _ _ ___ _ _ ___
 72
65
 73
6
 40
1.25
 49
0.625
 49
-0.125
 49
0.125
 49
-0.125
 49
0.125
 49
-0.125
  0
LTYPE
  2
DASHEDX2
 70
0
  3
Dashed (2x) ____  ____  ____  ____  ____  ____
 72
65
 73
2
 40
1.2
 49
1.0
 49
-0.2
  0
ENDTAB
  0
TABLE
  2
LAYER
 70
8
  0
LAYER
  2
mark
 70
0
 62
5
  6
CONTINUOUS
  0
LAYER
  2
engrave
 70
0
 62
3
  6
CONTINUOUS
  0
LAYER
  2
TABLECONTENT
 70
0
 62
1
  6
CONTINUOUS
  0
LAYER
  2
cut
 70
0
 62
1
  6
CONTINUOUS
  0
LAYER
  2
TABLEGRID
 70
0
 62
1
  6
CONTINUOUS
  0
LAYER
  2
TABLEBACKGROUND
 70
0
 62
1
  6
CONTINUOUS
  0
LAYER
  2
VIEWPORTS
 70
0
 62
7
  6
CONTINUOUS
  0
LAYER
  2
DIMENSIONS
 70
0
 62
1
  6
CONTINUOUS
  0
ENDTAB
  0
TABLE
  2
STYLE
 70
12
  0
STYLE
  2
TIMES_BOLD_ITALIC
 70
0
 40
0.0
 41
1.0
 42
1.0
 50
0.0
 71
0
  3
timesbi.ttf
  4

  0
STYLE
  2
ARIAL_BOLD_ITALIC
 70
0
 40
0.0
 41
1.0
 42
1.0
 50
0.0
 71
0
  3
arialbi.ttf
  4

  0
STYLE
  2
ISOCPEUR
 70
0
 40
0.0
 41
1.0
 42
1.0
 50
0.0
 71
0
  3
isocpeur.ttf
  4

  0
STYLE
  2
ARIAL_ITALIC
 70
0
 40
0.0
 41
1.0
 42
1.0
 50
0.0
 71
0
  3
ariali.ttf
  4

  0
STYLE
  2
TIMES_ITALIC
 70
0
 40
0.0
 41
1.0
 42
1.0
 50
0.0
 71
0
  3
timesi.ttf
  4

  0
STYLE
  2
TIMES
 70
0
 40
0.0
 41
1.0
 42
1.0
 50
0.0
 71
0
  3
times.ttf
  4

  0
STYLE
  2
STANDARD
 70
0
 40
0.0
 41
1.0
 42
1.0
 50
0.0
 71
0
  3
arial.ttf
  4

  0
STYLE
  2
ARIAL_BLACK
 70
0
 40
0.0
 41
1.0
 42
1.0
 50
0.0
 71
0
  3
ariblk.ttf
  4

  0
STYLE
  2
ISOCPEUR_ITALIC
 70
0
 40
0.0
 41
1.0
 42
1.0
 50
0.0
 71
0
  3
isocpeui.ttf
  4

  0
STYLE
  2
ARIAL_BOLD
 70
0
 40
0.0
 41
1.0
 42
1.0
 50
0.0
 71
0
  3
arialbd.ttf
  4

  0
STYLE
  2
TIMES_BOLD
 70
0
 40
0.0
 41
1.0
 42
1.0
 50
0.0
 71
0
  3
timesbd.ttf
  4

  0
STYLE
  2
ARIAL
 70
0
 40
0.0
 41
1.0
 42
1.0
 50
0.0
 71
0
  3
arial.ttf
  4

  0
ENDTAB
  0
TABLE
  2
VIEW
 70
0
  0
ENDTAB
  0
TABLE
  2
APPID
 70
1
  0
APPID
  2
DXFWRITE
 70
0
  0
ENDTAB
  0
TABLE
  2
VPORT
 70
0
  0
ENDTAB
  0
TABLE
  2
UCS
 70
0
  0
ENDTAB
  0
ENDSEC
  0
SECTION
  2
BLOCKS
  0
ENDSEC
  0
SECTION
  2
ENTITIES
  0
VIEWPORT
  8
VIEWPORTS
 67
1
 10
0.0
 20
0.0
 30
0.0
 40
1.0
 41
1.0
 68
1
 69
1
1001
ACAD
1000
MVIEW
1002
{
1070
16
1010
0.0
1020
0.0
1030
0.0
1010
0.0
1020
0.0
1030
0.0
1040
0.0
1040
1.0
1040
0.0
1040
0.0
1040
50.0
1040
0.0
1040
0.0
1070
0
1070
100
1070
1
1070
3
1070
0
1070
0
1070
0
1070
0
1040
0.0
1040
0.0
1040
0.0
1040
0.1
1040
0.1
1040
0.1
1040
0.1
1070
0
1002
{
1002
}
1002
}
  0
LINE
  8
cut
 10
0.0
 20
0.0
 30
0.0
 11
32.0
 21
0.0
 31
0.0
  0
LINE
  8
cut
 10
0.0
 20
0.0
 30
0.0
 11
0.0
 21
32.0
 31
0.0
  0
CIRCLE
  8
engrave
 10
4.0
 20
4.0
 30
0.0
 40
1.5
  0
CIRCLE
  8
engrave
 10
28.0
 20
28.0
 30
0.0
 40
1.5
  0
LINE
  8
mark
 10
0.0
 20
32.0
 30
0.0
 11
32.0
 21
32.0
 31
0.0
  0
LINE
  8
cut
 10
0.0
 20
32.0
 30
0.0
 11
0.0
 21
64.0
 31
0.0
  0
CIRCLE
  8
engrave
 10
4.0
 20
36.0
 30
0.0
 40
1.5
  0
CIRCLE
  8
engrave
 10
28.0
 20
60.0
 30
0.0
 40
1.5
  0
LINE
  8
cut
 10
0.0
 20
96.0
 30
0.0
 11
32.0
 21
96.0
 31
0.0
  0
LINE
  8
mark
 10
0.0
 20
64.0
 30
0.0
 11
32.0
 21
64.0
 31
0.0
  0
LINE
  8
cut
 10
0.0
 20
64.0
 30
0.0
 11
0.0
 21
96.0
 31
0.0
  0
CIRCLE
  8
engrave
 10
4.0
 20
68.0
 30
0.0
 40
1.5
  0
CIRCLE
  8
engrave
 10
28.0
 20
92.0
 30
0.0
 40
1.5
  0
LINE
  8
cut
 10
32.0
 20
0.0
 30
0.0
 11
64.0
 21
0.0
 31
0.0
  0
LINE
  8
mark
 10
32.0
 20
0.0
 30
0.0
 11
32.0
 21
32.0
 31
0.0
  0
CIRCLE
  8
engrave
 10
36.0
 20
4.0
 30
0.0
 40
1.5
  0
CIRCLE
  8
engrave
 10
60.0
 20
28.0
 30
0.0
 40
1.5
  0
LINE
  8
mark
 10
32.0
 20
32.0
 30
0.0
 11
64.0
 21
32.0
 31
0.0
  0
LINE
  8
mark
 10
32.0
 20
32.0
 30
0.0
 11
32.0
 21
64.0
 31
0.0
  0
CIRCLE
  8
engrave
 10
36.0
 20
36.0
 30
0.0
 40
1.5
  0
CIRCLE
  8
engrave
 10
60.0
 20
60.0
 30
0.0
 40
1.5
  0
LINE
  8
cut
 10
32.0
 20
96.0
 30
0.0
 11
64.0
 21
96.0
 31
0.0
  0
LINE
  8
mark
 10
32.0
 20
64.0
 30
0.0
 11
64.0
 21
64.0
 31
0.0
  0
LINE
  8
mark
 10
32.0
 20
64.0
 30
0.0
 11
32.0
 21
96.0
 31
0.0
  0
CIRCLE
  8
engrave
 10
36.0
 20
68.0
 30
0.0
 40
1.5
  0
CIRCLE
  8
engrave
 10
60.0
 20
92.0
 30
0.0
 40
1.5
  0
LINE
  8
cut
 10
96.0
 20
0.0
 30
0.0
 11
96.0
 21
32.0
 31
0.0
  0
LINE
  8
cut
 10
64.0
 20
0.0
 30
0.0
 11
96.0
 21
0.0
 31
0.0
  0
LINE
  8
mark
 10
64.0
 20
0.0
 30
0.0
 11
64.0
 21
32.0
 31
0.0
  0
CIRCLE
  8
engrave
 10
68.0
 20
4.0
 30
0.0
 40
1.5
  0
CIRCLE
  8
engrave
 10
92.0
 20
28.0
 30
0.0
 40
1.5
  0
LINE
  8
cut
 10
96.0
 20
32.0
 30
0.0
 11
96.0
 21
64.0
 31
0.0
  0
LINE
  8
mark
 10
64.0
 20
32.0
 30
0.0
 11
96.0
 21
32.0
 31
0.0
  0
LINE
  8
mark
 10
64.0
 20
32.0
 30
0.0
 11
64.0
 21
64.0
 31
0.0
  0
CIRCLE
  8
engrave
 10
68.0
 20
36.0
 30
0.0
 40
1.5
  0
CIRCLE
  8
engrave
 10
92.0
 20
60.0
 30
0.0
 40
1.5
  0
LINE
  8
cut
 10
96.0
 20
64.0
 30
0.0
 11
96.0
 21
96.0
 31
0.0
  0
LINE
  8
cut
 10
64.0
 20
96.0
 30
0.0
 11
96.0
 21
96.0
 31
0.0
  0
LINE
  8
mark
 10
64.0
 20
64.0
 30
0.0
 11
96.0
 21
64.0
 31
0.0
  0
LINE
  8
mark
 10
64.0
 20
64.0
 30
0.0
 11
64.0
 21
96.0
 31
0.0
  0
CIRCLE
  8
engrave
 10
68.0
 20
68.0
 30
0.0
 40
1.5
  0
CIRCLE
  8
engrave
 10
92.0
 20
92.0
 30
0.0
 40
1.5
  0
POLYLINE
  8
cut
 66
1
 10
0.0
 20
0.0
 30
0.0
 70
8
  0
VERTEX
  8
cut
 10
106.0
 20
0.0
 30
0.0
  0
VERTEX
  8
cut
 10
106.0
 20
12.0
 30
0.0
  0
VERTEX
  8
cut
 10
110.0
 20
8.0
 30
0.0
  0
VERTEX
  8
cut
 10
110.0
 20
24.0
 30
0.0
  0
VERTEX
  8
cut
 10
106.0
 20
20.0
 30
0.0
  0
VERTEX
  8
cut
 10
106.0
 20
32.0
 30
0.0
  0
SEQEND
  0
POLYLINE
  8
cut
 66
1
 10
0.0
 20
0.0
 30
0.0
 70
8
  0
VERTEX
  8
cut
 10
106.0
 20
0.0
 30
0.0
  0
VERTEX
  8
cut
 10
118.0
 20
0.0
 30
0.0
  0
VERTEX
  8
cut
 10
114.0
 20
4.0
 30
0.0
  0
VERTEX
  8
cut
 10
130.0
 20
4.0
 30
0.0
  0
VERTEX
  8
cut
 10
126.0
 20
0.0
 30
0.0
  0
VERTEX
  8
cut
 10
138.0
 20
0.0
 30
0.0
  0
SEQEND
  0
POLYLINE
  8
cut
 66
1
 10
0.0
 20
0.0
 30
0.0
 70
8
  0
VERTEX
  8
cut
 10
106.0
 20
32.0
 30
0.0
  0
VERTEX
  8
cut
 10
106.0
 20
44.0
 30
0.0
  0
VERTEX
  8
cut
 10
110.0
 20
40.0
 30
0.0
  0
VERTEX
  8
cut
 10
110.0
 20
56.0
 30
0.0
  0
VERTEX
  8
cut
 10
106.0
 20
52.0
 30
0.0
  0
VERTEX
  8
cut
 10
106.0
 20
64.0
 30
0.0
  0
SEQEND
  0
POLYLINE
  8
cut
 66
1
 10
0.0
 20
0.0
 30
0.0
 70
8
  0
VERTEX
  8
cut
 10
106.0
 20
64.0
 30
0.0
  0
VERTEX
  8
cut
 10
106.0
 20
76.0
 30
0.0
  0
VERTEX
  8
cut
 10
110.0
 20
72.0
 30
0.0
  0
VERTEX
  8
cut
 10
110.0
 20
88.0
 30
0.0
  0
VERTEX
  8
cut
 10
106.0
 20
84.0
 30
0.0
  0
VERTEX
  8
cut
 10
106.0
 20
96.0
 30
0.0
  0
SEQEND
  0
POLYLINE
  8
cut
 66
1
 10
0.0
 20
0.0
 30
0.0
 70
8
  0
VERTEX
  8
cut
 10
106.0
 20
96.0
 30
0.0
  0
VERTEX
  8
cut
 10
118.0
 20
96.0
 30
0.0
  0
VERTEX
  8
cut
 10
114.0
 20
92.0
 30
0.0
  0
VERTEX
  8
cut
 10
130.0
 20
92.0
 30
0.0
  0
VERTEX
  8
cut
 10
126.0
 20
96.0
 30
0.0
  0
VERTEX
  8
cut
 10
138.0
 20
96.0
 30
0.0
  0
SEQEND
  0
POLYLINE
  8
cut
 66
1
 10
0.0
 20
0.0
 30
0.0
 70
8
  0
VERTEX
  8
cut
 10
138.0
 20
0.0
 30
0.0
  0
VERTEX
  8
cut
 10
150.0
 20
0.0
 30
0.0
  0
VERTEX
  8
cut
 10
146.0
 20
4.0
 30
0.0
  0
VERTEX
  8
cut
 10
162.0
 20
4.0
 30
0.0
  0
VERTEX
  8
cut
 10
158.0
 20
0.0
 30
0.0
  0
VERTEX
  8
cut
 10
170.0
 20
0.0
 30
0.0
  0
SEQEND
  0
POLYLINE
  8
cut
 66
1
 10
0.0
 20
0.0
 30
0.0
 70
8
  0
VERTEX
  8
cut
 10
138.0
 20
96.0
 30
0.0
  0
VERTEX
  8
cut
 10
150.0
 20
96.0
 30
0.0
  0
VERTEX
  8
cut
 10
146.0
 20
92.0
 30
0.0
  0
VERTEX
  8
cut
 10
162.0
 20
92.0
 30
0.0
  0
VERTEX
  8
cut
 10
158.0
 20
96.0
 30
0.0
  0
VERTEX
  8
cut
 10
170.0
 20
96.0
 30
0.0
  0
SEQEND
  0
POLYLINE
  8
cut
 66
1
 10
0.0
 20
0.0
 30
0.0
 70
8
  0
VERTEX
  8
cut
 10
170.0
 20
0.0
 30
0.0
  0
VERTEX
  8
cut
 10
182.0
 20
0.0
 30
0.0
  0
VERTEX
  8
cut
 10
178.0
 20
4.0
 30
0.0
  0
VERTEX
  8
cut
 10
194.0
 20
4.0
 30
0.0
  0
VERTEX
  8
cut
 10
190.0
 20
0.0
 30
0.0
  0
VERTEX
  8
cut
 10
202.0
 20
0.0
 30
0.0
  0
SEQEND
  0
POLYLINE
  8
cut
 66
1
 10
0.0
 20
0.0
 30
0.0
 70
8
  0
VERTEX
  8
cut
 10
202.0
 20
0.0
 30
0.0
  0
VERTEX
  8
cut
 10
202.0
 20
12.0
 30
0.0
  0
VERTEX
  8
cut
 10
198.0
 20
8.0
 30
0.0
  0
VERTEX
  8
cut
 10
198.0
 20
24.0
 30
0.0
  0
VERTEX
  8
cut
 10
202.0
 20
20.0
 30
0.0
  0
VERTEX
  8
cut
 10
202.0
 20
32.0
 30
0.0
  0
SEQEND
  0
POLYLINE
  8
cut
 66
1
 10
0.0
 20
0.0
 30
0.0
 70
8
  0
VERTEX
  8
cut
 10
202.0
 20
32.0
 30
0.0
  0
VERTEX
  8
cut
 10
202.0
 20
44.0
 30
0.0
  0
VERTEX
  8
cut
 10
198.0
 20
40.0
 30
0.0
  0
VERTEX
  8
cut
 10
198.0
 20
56.0
 30
0.0
  0
VERTEX
  8
cut
 10
202.0
 20
52.0
 30
0.0
  0
VERTEX
  8
cut
 10
202.0
 20
64.0
 30
0.0
  0
SEQEND
  0
POLYLINE
  8
cut
 66
1
 10
0.0
 20
0.0
 30
0.0
 70
8
  0
VERTEX
  8
cut
 10
202.0
 20
64.0
 30
0.0
  0
VERTEX
  8
cut
 10
202.0
 20
76.0
 30
0.0
  0
VERTEX
  8
cut
 10
198.0
 20
72.0
 30
0.0
  0
VERTEX
  8
cut
 10
198.0
 20
88.0
 30
0.0
  0
VERTEX
  8
cut
 10
202.0
 20
84.0
 30
0.0
  0
VERTEX
  8
cut
 10
202.0
 20
96.0
 30
0.0
  0
SEQEND
  0
POLYLINE
  8
cut
 66
1
 10
0.0
 20
0.0
 30
0.0
 70
8
  0
VERTEX
  8
cut
 10
170.0
 20
96.0
 30
0.0
  0
VERTEX
  8
cut
 10
182.0
 20
96.0
 30
0.0
  0
VERTEX
  8
cut
 10
178.0
 20
92.0
 30
0.0
  0
VERTEX
  8
cut
 10
194.0
 20
92.0
 30
0.0
  0
VERTEX
  8
cut
 10
190.0
 20
96.0
 30
0.0
  0
VERTEX
  8
cut
 10
202.0
 20
96.0
 30
0.0
  0
SEQEND
  0
CIRCLE
 62
9
  8
0
 10
0.0
 20
64.0
 30
0.0
 40
1.0
  0
CIRCLE
 62
9
  8
0
 10
15.66191518338762
 20
54.646229762069815
 30
0.0
 40
1.0
  0
CIRCLE
 62
9
  8
0
 10
31.746076342071945
 20
55.63063152675045
 30
0.0
 40
1.0
  0
CIRCLE
 62
9
  8
0
 10
51.367314360563014
 20
36.05896405685538
 30
0.0
 40
1.0
  0
CIRCLE
 62
9
  8
0
 10
96.0
 20
32.0
 30
0.0
 40
1.0
  0
POLYLINE
 62
1
  8
0
 66
1
 10
0.0
 20
0.0
 30
0.0
 70
8
  0
VERTEX
  8
0
 10
0.0
 20
64.0
 30
0.0
  0
VERTEX
  8
0
 10
0.6675334951726785
 20
62.57119501550376
 30
0.0
  0
VERTEX
  8
0
 10
1.378899773661058
 20
61.28690393395692
 30
0.0
  0
VERTEX
  8
0
 10
2.1318441155228123
 20
60.140198965183885
 30
0.0
  0
VERTEX
  8
0
 10
2.9241118008156155
 20
59.12415231900908
 30
0.0
  0
VERTEX
  8
0
 10
3.7534481095971417
 20
58.23183620525692
 30
0.0
  0
VERTEX
  8
0
 10
4.6175983219250645
 20
57.456322833751834
 30
0.0
  0
VERTEX
  8
0
 10
5.514307717857058
 20
56.790684414318235
 30
0.0
  0
VERTEX
  8
0
 10
6.441321577450796
 20
56.22799315678055
 30
0.0
  0
VERTEX
  8
0
 10
7.396385180763951
 20
55.76132127096319
 30
0.0
  0
VERTEX
  8
0
 10
8.3772438078542
 20
55.383740966690574
 30
0.0
  0
VERTEX
  8
0
 10
9.381642738779213
 20
55.08832445378714
 30
0.0
  0
VERTEX
  8
0
 10
10.407327253596668
 20
54.86814394207728
 30
0.0
  0
VERTEX
  8
0
 10
11.452042632364234
 20
54.71627164138544
 30
0.0
  0
VERTEX
  8
0
 10
12.51353415513959
 20
54.62577976153602
 30
0.0
  0
VERTEX
  8
0
 10
13.58954710198041
 20
54.58974051235345
 30
0.0
  0
VERTEX
  8
0
 10
14.677826752944366
 20
54.60122610366215
 30
0.0
  0
VERTEX
  8
0
 10
15.776118920298934
 20
54.653307608478194
 30
0.0
  0
VERTEX
  8
0
 10
16.882167851089594
 20
54.73905938253279
 30
0.0
  0
VERTEX
  8
0
 10
17.993719333671333
 20
54.8515526190179
 30
0.0
  0
VERTEX
  8
0
 10
19.108518652643784
 20
54.98385952893007
 30
0.0
  0
VERTEX
  8
0
 10
20.224311092606587
 20
55.12905232326583
 30
0.0
  0
VERTEX
  8
0
 10
21.33884193815938
 20
55.28020321302173
 30
0.0
  0
VERTEX
  8
0
 10
22.449856473901797
 20
55.430384409194296
 30
0.0
  0
VERTEX
  8
0
 10
23.55509998443347
 20
55.57266812278008
 30
0.0
  0
VERTEX
  8
0
 10
24.652317754354037
 20
55.700126564775616
 30
0.0
  0
VERTEX
  8
0
 10
25.73925506826314
 20
55.80583194617744
 30
0.0
  0
VERTEX
  8
0
 10
26.813657210760418
 20
55.882856477982095
 30
0.0
  0
VERTEX
  8
0
 10
27.873269466445493
 20
55.92427237118612
 30
0.0
  0
VERTEX
  8
0
 10
28.91583711991801
 20
55.92315183678605
 30
0.0
  0
VERTEX
  8
0
 10
29.939105455777607
 20
55.87256708577843
 30
0.0
  0
VERTEX
  8
0
 10
30.940819758623913
 20
55.76559032915979
 30
0.0
  0
VERTEX
  8
0
 10
31.918728250523472
 20
55.59530309615894
 30
0.0
  0
VERTEX
  8
0
 10
32.871489815865374
 20
55.35742183974805
 30
0.0
  0
VERTEX
  8
0
 10
33.79991968550861
 20
55.053910384442275
 30
0.0
  0
VERTEX
  8
0
 10
34.70514600130119
 20
54.68763797285986
 30
0.0
  0
VERTEX
  8
0
 10
35.58829690509112
 20
54.26147384761904
 30
0.0
  0
VERTEX
  8
0
 10
36.450500538726416
 20
53.778287251338035
 30
0.0
  0
VERTEX
  8
0
 10
37.29288504405508
 20
53.24094742663509
 30
0.0
  0
VERTEX
  8
0
 10
38.11657856292513
 20
52.652323616128434
 30
0.0
  0
VERTEX
  8
0
 10
38.92270923718458
 20
52.015285062436305
 30
0.0
  0
VERTEX
  8
0
 10
39.712405208681425
 20
51.33270100817693
 30
0.0
  0
VERTEX
  8
0
 10
40.48679461926369
 20
50.607440695968556
 30
0.0
  0
VERTEX
  8
0
 10
41.24700561077939
 20
49.842373368429406
 30
0.0
  0
VERTEX
  8
0
 10
41.99416632507652
 20
49.040368268177716
 30
0.0
  0
VERTEX
  8
0
 10
42.729404904003104
 20
48.204294637831715
 30
0.0
  0
VERTEX
  8
0
 10
43.45384948940714
 20
47.33702172000965
 30
0.0
  0
VERTEX
  8
0
 10
44.16862822313665
 20
46.44141875732974
 30
0.0
  0
VERTEX
  8
0
 10
44.87486924703964
 20
45.52035499241023
 30
0.0
  0
VERTEX
  8
0
 10
45.57370070296412
 20
44.576699667869356
 30
0.0
  0
VERTEX
  8
0
 10
46.266250732758095
 20
43.61332202632534
 30
0.0
  0
VERTEX
  8
0
 10
46.95364747826959
 20
42.63309131039642
 30
0.0
  0
VERTEX
  8
0
 10
47.6370190813466
 20
41.63887676270084
 30
0.0
  0
VERTEX
  8
0
 10
48.31749368383715
 20
40.63354762585682
 30
0.0
  0
VERTEX
  8
0
 10
48.99619942758924
 20
39.61997314248259
 30
0.0
  0
VERTEX
  8
0
 10
49.67426445445089
 20
38.60102255519641
 30
0.0
  0
VERTEX
  8
0
 10
50.3528169062701
 20
37.579565106616485
 30
0.0
  0
VERTEX
  8
0
 10
51.03298492489489
 20
36.55847003936107
 30
0.0
  0
VERTEX
  8
0
 10
51.71589627562527
 20
35.540606618353344
 30
0.0
  0
VERTEX
  8
0
 10
52.402679823581394
 20
34.528844103445174
 30
0.0
  0
VERTEX
  8
0
 10
53.09446336188183
 20
33.5260517194986
 30
0.0
  0
VERTEX
  8
0
 10
53.79237503171526
 20
32.53509871118306
 30
0.0
  0
VERTEX
  8
0
 10
54.49754297427039
 20
31.558854323168003
 30
0.0
  0
VERTEX
  8
0
 10
55.211095330735894
 20
30.60018780012287
 30
0.0
  0
VERTEX
  8
0
 10
55.93416024230048
 20
29.66196838671711
 30
0.0
  0
VERTEX
  8
0
 10
56.66786585015284
 20
28.747065327620156
 30
0.0
  0
VERTEX
  8
0
 10
57.41334029548166
 20
27.858347867501458
 30
0.0
  0
VERTEX
  8
0
 10
58.171711719475645
 20
26.998685251030455
 30
0.0
  0
VERTEX
  8
0
 10
58.94410826332348
 20
26.170946722876593
 30
0.0
  0
VERTEX
  8
0
 10
59.73165806821386
 20
25.37800152770931
 30
0.0
  0
VERTEX
  8
0
 10
60.53548927533548
 20
24.622718910198053
 30
0.0
  0
VERTEX
  8
0
 10
61.35673002587703
 20
23.907968115012267
 30
0.0
  0
VERTEX
  8
0
 10
62.19650846102721
 20
23.236618386821387
 30
0.0
  0
VERTEX
  8
0
 10
63.055952721974705
 20
22.611538970294863
 30
0.0
  0
VERTEX
  8
0
 10
63.936190949908216
 20
22.035599110102133
 30
0.0
  0
VERTEX
  8
0
 10
64.83835128601643
 20
21.51166805091264
 30
0.0
  0
VERTEX
  8
0
 10
65.76356187148805
 20
21.04261503739583
 30
0.0
  0
VERTEX
  8
0
 10
66.71295084751176
 20
20.63130931422114
 30
0.0
  0
VERTEX
  8
0
 10
67.68764635527627
 20
20.280620126058025
 30
0.0
  0
VERTEX
  8
0
 10
68.68877653597025
 20
19.993416717575915
 30
0.0
  0
VERTEX
  8
0
 10
69.71746953078241
 20
19.772568333444255
 30
0.0
  0
VERTEX
  8
0
 10
70.77485348090143
 20
19.620944218332493
 30
0.0
  0
VERTEX
  8
0
 10
71.86205652751602
 20
19.541413616910067
 30
0.0
  0
VERTEX
  8
0
 10
72.98020681181487
 20
19.536845773846427
 30
0.0
  0
VERTEX
  8
0
 10
74.13043247498665
 20
19.610109933811003
 30
0.0
  0
VERTEX
  8
0
 10
75.31386165822008
 20
19.764075341473244
 30
0.0
  0
VERTEX
  8
0
 10
76.53162250270385
 20
20.0016112415026
 30
0.0
  0
VERTEX
  8
0
 10
77.78484314962665
 20
20.325586878568508
 30
0.0
  0
VERTEX
  8
0
 10
79.07465174017717
 20
20.73887149734041
 30
0.0
  0
VERTEX
  8
0
 10
80.4021764155441
 20
21.244334342487747
 30
0.0
  0
VERTEX
  8
0
 10
81.76854531691615
 20
21.84484465867996
 30
0.0
  0
VERTEX
  8
0
 10
83.174886585482
 20
22.543271690586497
 30
0.0
  0
VERTEX
  8
0
 10
84.62232836243035
 20
23.342484682876808
 30
0.0
  0
VERTEX
  8
0
 10
86.1119987889499
 20
24.245352880220313
 30
0.0
  0
VERTEX
  8
0
 10
87.64502600622932
 20
25.25474552728648
 30
0.0
  0
VERTEX
  8
0
 10
89.22253815545733
 20
26.37353186874474
 30
0.0
  0
VERTEX
  8
0
 10
90.84566337782259
 20
27.604581149264533
 30
0.0
  0
VERTEX
  8
0
 10
92.51552981451383
 20
28.950762613515305
 30
0.0
  0
VERTEX
  8
0
 10
94.23326560671973
 20
30.4149455061665
 30
0.0
  0
VERTEX
  8
0
 10
96.0
 20
32.0
 30
0.0
  0
SEQEND
  0
ENDSEC
  0
EOF
